<?xml version="1.0" standalone="no"?>
<!DOCTYPE svg PUBLIC "-//W3C//DTD SVG 20010904//EN"
 "http://www.w3.org/TR/2001/REC-SVG-20010904/DTD/svg10.dtd">
<svg version="1.0" xmlns="http://www.w3.org/2000/svg"
 width="238.000000pt" height="238.000000pt" viewBox="0 0 238.000000 238.000000"
 preserveAspectRatio="xMidYMid meet">
<metadata>
Created by potrace 1.11, written by Peter Selinger 2001-2013
</metadata>
<g transform="translate(0.000000,238.000000) scale(0.100000,-0.100000)"
fill="#000000" stroke="none">
<path d="M1138 2322 c-45 -68 -284 -336 -304 -340 -13 -3 -47 7 -250 73 -39
13 -92 35 -117 49 l-47 24 6 -23 c6 -25 -10 -149 -31 -235 -7 -30 -19 -82 -25
-114 l-12 -59 -124 6 c-69 4 -133 11 -144 17 -23 12 -23 10 -11 -23 10 -26 17
-105 27 -297 15 -307 87 -545 207 -684 23 -28 51 -76 63 -107 76 -209 253
-394 464 -485 196 -85 413 -93 620 -23 232 79 431 271 520 501 18 45 52 110
76 144 118 165 170 365 189 724 8 151 16 222 27 244 9 16 8 18 -8 12 -11 -4
-30 -9 -44 -11 -36 -6 -180 -15 -180 -11 0 2 -14 68 -31 147 -39 185 -56 292
-53 328 l4 29 -50 -24 c-27 -13 -113 -43 -192 -68 -79 -25 -166 -52 -194 -61
l-51 -17 -55 59 c-131 138 -201 220 -214 251 -8 17 -18 32 -22 32 -4 -1 -24
-27 -44 -58z m-329 -1547 c48 -24 56 -81 16 -120 -30 -30 -64 -32 -99 -4 -43
34 -34 99 19 127 26 15 31 15 64 -3z m839 -21 c12 -14 22 -34 22 -45 0 -27
-53 -79 -80 -79 -26 0 -80 52 -80 77 0 25 27 63 54 73 29 12 57 3 84 -26z
m-206 -294 c-8 -86 -94 -189 -176 -211 -94 -25 -192 -5 -263 55 -39 33 -83
119 -83 163 l0 33 263 -2 262 -3 -3 -35z"/>
</g>
</svg>
